<?xml version="1.0" encoding="UTF-8"?><svg id="Layer_1" xmlns="http://www.w3.org/2000/svg" viewBox="0 0 339.28 192.82"><defs><style>.cls-1{fill:#fff;}</style></defs><g><path class="cls-1" d="M37.28,1.06H21.28L0,93.96H21.58l1.39-15.03h13.37l1.58,15.03h21.01L37.28,1.06Zm-12.52,62.74l4.23-34.16h1.01l4.86,34.16h-10.1Z"/><path class="cls-1" d="M91.62,94.8c-8.04,0-14.5-2.1-19.4-6.3-4.9-4.2-7.35-10.07-7.35-17.62V27.93c0-9.03,2.13-15.94,6.4-20.74,4.27-4.8,11.22-7.19,20.85-7.19,5.26,0,9.94,.81,14.04,2.43,4.1,1.62,7.33,4.05,9.69,7.27,2.36,3.23,3.53,7.29,3.53,12.19v16.08h-22.08v-13.75c0-2.79-.42-4.66-1.26-5.63-.84-.97-2.14-1.46-3.91-1.46-2.06,0-3.45,.63-4.16,1.88-.72,1.25-1.07,2.92-1.07,5v46.61c0,2.57,.45,4.39,1.36,5.45,.9,1.06,2.2,1.59,3.88,1.59,1.89,0,3.23-.65,4.01-1.96,.78-1.3,1.17-3,1.17-5.08v-16.77h22.34v17.62c0,8.18-2.46,14.12-7.38,17.8-4.92,3.69-11.8,5.53-20.63,5.53Z"/><path class="cls-1" d="M127.02,93.96V.85h44.42V18.83h-21.83v18.15h20.95v17.51h-20.95v21.32h23.28v18.15h-45.87Z"/><path class="cls-1" d="M25.93,192.82c-15.86,0-23.79-9.52-23.79-28.57v-40.15c0-17.39,9.09-26.08,27.26-26.08,7.49,0,13.23,1.26,17.23,3.78,4,2.52,6.75,6.2,8.27,11.03,1.51,4.83,2.27,10.72,2.27,17.67h-21.71v-8.25c0-2.01-.33-3.69-.98-5.05-.65-1.36-2.01-2.04-4.07-2.04-2.57,0-4.26,.72-5.08,2.17-.82,1.45-1.23,3.03-1.23,4.76v45.13c0,2.5,.39,4.54,1.17,6.11,.78,1.57,2.3,2.35,4.57,2.35s3.92-.78,4.7-2.35c.78-1.57,1.17-3.64,1.17-6.22v-13.28h-5.93v-16.08h27.13v54.23h-8.9l-3.79-7.83c-3.87,5.79-9.97,8.68-18.3,8.68Z"/><path class="cls-1" d="M65.31,191.97V112.61h22.97v8.83c1.09-3.07,3.03-5.47,5.81-7.19,2.78-1.73,6.27-2.59,10.47-2.59v15.82c-1.85,0-4.06,.17-6.63,.5-2.57,.34-4.82,.79-6.75,1.38-1.94,.58-2.9,1.23-2.9,1.93v60.68h-22.97Z"/><path class="cls-1" d="M127.33,192.82c-5.26,0-9.27-1.02-12.02-3.07-2.76-2.04-4.64-4.85-5.65-8.41-1.01-3.56-1.51-7.6-1.51-12.11,0-4.83,.57-8.79,1.7-11.88,1.14-3.09,3.08-5.62,5.84-7.59,2.75-1.97,6.55-3.65,11.39-5.03l14.01-4.02v-8.15c0-4.27-1.66-6.4-4.98-6.4-3.03,0-4.54,1.73-4.54,5.18v4.76h-21.96c-.04-.28-.06-.64-.06-1.08v-1.51c0-7.9,2.22-13.5,6.66-16.8,4.44-3.3,11.47-4.95,21.11-4.95,5.05,0,9.57,.75,13.57,2.25,4,1.5,7.16,3.71,9.5,6.64,2.33,2.93,3.5,6.54,3.5,10.85v60.47h-22.46v-9.42c-1.09,3.32-2.9,5.86-5.43,7.62-2.52,1.76-5.41,2.65-8.64,2.65Zm8.9-14.71c1.85,0,3.11-.65,3.79-1.96,.67-1.3,1.01-2.71,1.01-4.23v-22.11c-3.11,1.06-5.53,2.39-7.26,3.99-1.73,1.61-2.59,3.96-2.59,7.06v10.21c0,4.69,1.68,7.04,5.05,7.04Z"/><path class="cls-1" d="M191.19,192.82c-4.38,0-7.85-.67-10.41-2.01-2.57-1.34-4.48-3.19-5.74-5.55-1.26-2.36-2.09-5.13-2.49-8.31-.4-3.17-.6-6.58-.6-10.21v-34.49c0-6.1,1.29-11.04,3.88-14.81,2.59-3.77,6.97-5.66,13.16-5.66,4.58,0,8.11,.82,10.57,2.46,2.46,1.64,4.36,3.92,5.71,6.85v-22.22h22.97v93.11h-22.97v-8.41c-1.26,2.86-2.93,5.11-5.02,6.77s-5.1,2.49-9.05,2.49Zm8.64-14.81c2.15,0,3.59-.72,4.32-2.17,.74-1.45,1.1-4.04,1.1-7.78v-33.38c0-1.87-.33-3.71-.98-5.53-.65-1.82-2.09-2.72-4.32-2.72-2.44,0-3.97,.86-4.61,2.59-.63,1.73-.95,3.62-.95,5.66v33.38c0,6.63,1.81,9.95,5.43,9.95Z"/><path class="cls-1" d="M263.44,192.82c-6.73,0-12.09-1.06-16.09-3.17-4-2.12-6.86-5.17-8.58-9.15-1.73-3.99-2.59-8.78-2.59-14.39v-31.9c0-7.37,2.52-12.95,7.57-16.74,5.05-3.79,11.99-5.69,20.82-5.69,18.17,0,27.26,7.48,27.26,22.43v5.77c0,6.98-.09,11.67-.25,14.07h-32.81v15.34c0,1.41,.1,2.8,.32,4.15,.21,1.36,.68,2.48,1.42,3.36,.74,.88,1.92,1.32,3.56,1.32,2.36,0,3.83-.85,4.42-2.57,.59-1.71,.88-3.94,.88-6.69v-7.62h22.46v4.5c0,5.92-.87,10.89-2.62,14.89-1.75,4-4.69,7.02-8.83,9.05-4.14,2.03-9.79,3.04-16.94,3.04Zm-4.8-48.19h10.73v-10.69c0-2.86-.42-4.91-1.26-6.16-.84-1.25-2.1-1.88-3.79-1.88-1.81,0-3.21,.6-4.2,1.8-.99,1.2-1.48,3.28-1.48,6.24v10.69Z"/><path class="cls-1" d="M300.03,191.97V112.61h22.97v8.83c1.09-3.07,3.03-5.47,5.81-7.19,2.78-1.73,6.27-2.59,10.47-2.59v15.82c-1.85,0-4.06,.17-6.63,.5-2.57,.34-4.82,.79-6.75,1.38-1.94,.58-2.9,1.23-2.9,1.93v60.68h-22.97Z"/></g><path class="cls-1" d="M315.9,.49h-54.32V95.41h77.71V23.87L315.9,.49Zm1.74,10.12l11.52,11.52h-11.52V10.61Zm15.7,78.87h-65.96V6.42h44.32V28.06h21.64v61.42Z"/><path class="cls-1" d="M253.66,.49h-24.89V79.48c0,1.05,.35,1.98,.93,2.79l9.77,12.33c.46,.58,1.05,.81,1.74,.81s1.28-.23,1.74-.81l9.77-12.33c.58-.81,.93-1.74,.93-2.79V.49Zm-5.35,5.35v6.4h-14.19V5.84h14.19Zm-14.19,70.14V17.71h14.19v58.28h-14.19Zm7.1,12.1l-5.35-6.75h10.7l-5.35,6.75Z"/></svg>